<?xml version="1.0" standalone="no"?>
<svg xmlns="http://www.w3.org/2000/svg" width="1120" height="549.4333343505859"><g transform="translate(70,20)"><g class="x axis" transform="translate(0,400)" fill="none" font-size="10" font-family="sans-serif" text-anchor="middle"><path class="domain" stroke="#000" d="M0.5,6V0.5H1000.5V6"/><g class="tick" opacity="1" transform="translate(177.41935483870972,0)"><line stroke="#000" y2="6"/><text fill="#000" y="9" dy="-0.5em" style="text-anchor: end;" dx="-.8em" transform="rotate(-90)">Central (n=23)</text></g><g class="tick" opacity="1" transform="translate(500,0)"><line stroke="#000" y2="6"/><text fill="#000" y="9" dy="-0.5em" style="text-anchor: end;" dx="-.8em" transform="rotate(-90)">Coastal (n=42)</text></g><g class="tick" opacity="1" transform="translate(822.5806451612904,0)"><line stroke="#000" y2="6"/><text fill="#000" y="9" dy="-0.5em" style="text-anchor: end;" dx="-.8em" transform="rotate(-90)">Western (n=18)</text></g></g><g class="y axis" fill="none" font-size="10" font-family="sans-serif" text-anchor="end"><path class="domain" stroke="#000" d="M-6,400.5H0.5V0.5H-6"/><g class="tick" opacity="1" transform="translate(0,400.5)"><line stroke="#000" x2="-6"/><text fill="#000" x="-9" dy="0.32em">1.2</text></g><g class="tick" opacity="1" transform="translate(0,367.1666666666667)"><line stroke="#000" x2="-6"/><text fill="#000" x="-9" dy="0.32em">1.4</text></g><g class="tick" opacity="1" transform="translate(0,333.8333333333333)"><line stroke="#000" x2="-6"/><text fill="#000" x="-9" dy="0.32em">1.6</text></g><g class="tick" opacity="1" transform="translate(0,300.5)"><line stroke="#000" x2="-6"/><text fill="#000" x="-9" dy="0.32em">1.8</text></g><g class="tick" opacity="1" transform="translate(0,267.1666666666667)"><line stroke="#000" x2="-6"/><text fill="#000" x="-9" dy="0.32em">2.0</text></g><g class="tick" opacity="1" transform="translate(0,233.83333333333331)"><line stroke="#000" x2="-6"/><text fill="#000" x="-9" dy="0.32em">2.2</text></g><g class="tick" opacity="1" transform="translate(0,200.50000000000006)"><line stroke="#000" x2="-6"/><text fill="#000" x="-9" dy="0.32em">2.4</text></g><g class="tick" opacity="1" transform="translate(0,167.16666666666669)"><line stroke="#000" x2="-6"/><text fill="#000" x="-9" dy="0.32em">2.6</text></g><g class="tick" opacity="1" transform="translate(0,133.83333333333337)"><line stroke="#000" x2="-6"/><text fill="#000" x="-9" dy="0.32em">2.8</text></g><g class="tick" opacity="1" transform="translate(0,100.50000000000006)"><line stroke="#000" x2="-6"/><text fill="#000" x="-9" dy="0.32em">3.0</text></g><g class="tick" opacity="1" transform="translate(0,67.16666666666669)"><line stroke="#000" x2="-6"/><text fill="#000" x="-9" dy="0.32em">3.2</text></g><g class="tick" opacity="1" transform="translate(0,33.83333333333337)"><line stroke="#000" x2="-6"/><text fill="#000" x="-9" dy="0.32em">3.4</text></g><g class="tick" opacity="1" transform="translate(0,0.5)"><line stroke="#000" x2="-6"/><text fill="#000" x="-9" dy="0.32em">3.6</text></g></g><text class="x label" text-anchor="middle" style="font: 12px sans-serif;" transform="translate(500,519.4333343505859)">Region</text><text class="y label" text-anchor="middle" style="font: 12px sans-serif;" transform="translate(-50,200)rotate(-90)">shannon_entropy</text><line class="center" x1="177.41935483870972" y1="287.99829308333335" x2="177.41935483870972" y2="37.40381556666665" stroke-dasharray="2,2" stroke-width="1" stroke="black"/><line class="center" x1="500" y1="393.7917423" x2="500" y2="21.45219785000012" stroke-dasharray="2,2" stroke-width="1" stroke="black"/><line class="center" x1="822.5806451612904" y1="303.17896406666665" x2="822.5806451612904" y2="15.495593000000099" stroke-dasharray="2,2" stroke-width="1" stroke="black"/><g class="outlier" transform="translate(177.41935483870972,0)"><circle r="4" stroke-width="1" stroke="black" stroke-opacity="0.3" fill="black" fill-opacity="0.33" cx="0" cy="312.52512136666667"/></g><g class="outlier" transform="translate(500,0)"/><g class="outlier" transform="translate(822.5806451612904,0)"/><rect class="box" x="32.25806451612908" y="94.4074570333334" width="290.3225806451613" height="83.91271249166664" fill="white" stroke-width="1" stroke="black"/><rect class="box" x="354.8387096774194" y="120.26689841250004" width="290.3225806451613" height="109.48047077500001" fill="white" stroke-width="1" stroke="black"/><rect class="box" x="677.4193548387098" y="74.57336285833344" width="290.3225806451613" height="122.14374946666655" fill="white" stroke-width="1" stroke="black"/><line class="median" x1="32.25806451612908" y1="126.36885058333337" x2="322.58064516129036" y2="126.36885058333337" stroke-width="1" stroke="black"/><line class="median" x1="354.8387096774194" y1="170.00591985" x2="645.1612903225807" y2="170.00591985" stroke-width="1" stroke="black"/><line class="median" x1="677.4193548387098" y1="162.60077128333336" x2="967.741935483871" y2="162.60077128333336" stroke-width="1" stroke="black"/><g class="whisker" transform="translate(104.8387096774194,0)"><line class="median" x1="0" y1="287.99829308333335" x2="145.16129032258064" y2="287.99829308333335" stroke-width="1" stroke="black"/><line class="median" x1="0" y1="37.40381556666665" x2="145.16129032258064" y2="37.40381556666665" stroke-width="1" stroke="black"/></g><g class="whisker" transform="translate(427.4193548387097,0)"><line class="median" x1="0" y1="393.7917423" x2="145.16129032258064" y2="393.7917423" stroke-width="1" stroke="black"/><line class="median" x1="0" y1="21.45219785000012" x2="145.16129032258064" y2="21.45219785000012" stroke-width="1" stroke="black"/></g><g class="whisker" transform="translate(750.0000000000001,0)"><line class="median" x1="0" y1="303.17896406666665" x2="145.16129032258064" y2="303.17896406666665" stroke-width="1" stroke="black"/><line class="median" x1="0" y1="15.495593000000099" x2="145.16129032258064" y2="15.495593000000099" stroke-width="1" stroke="black"/></g></g></svg>